<?xml version="1.0" encoding="UTF-8" standalone="no"?>
<svg width="14px" height="20px" viewBox="0 0 14 20" version="1.1" xmlns="http://www.w3.org/2000/svg" xmlns:xlink="http://www.w3.org/1999/xlink">
    <!-- Generator: Sketch 41.2 (35397) - http://www.bohemiancoding.com/sketch -->
    <title>better-amp-symbol</title>
    <desc>Created with Sketch.</desc>
    <defs></defs>
    <g id="Identity" stroke="none" stroke-width="1" fill="none" fill-rule="evenodd">
        <g id="Artboard" transform="translate(-391.000000, -517.000000)" fill="#FFFFFF">
            <path d="M403.779537,527.036667 L399.067314,524.305556 L401.44287,518.604444 C401.516203,518.455556 401.557314,518.287778 401.557314,518.111111 C401.557314,517.497778 401.06287,517 400.449537,517 C400.17287,517.004444 399.941759,517.092222 399.758425,517.237778 C399.721759,517.266667 399.699537,517.284444 399.680648,517.304444 L391.347314,525.193333 C391.09287,525.434444 390.967314,525.781111 391.007314,526.128889 C391.047314,526.476667 391.250648,526.785556 391.55287,526.962222 L396.266203,529.695556 L393.86287,535.462222 C393.659537,535.946667 393.825092,536.506667 394.256203,536.804444 C394.447314,536.935556 394.669537,537 394.887314,537 C395.16287,537 395.438425,536.896667 395.651759,536.695556 L403.985092,528.804444 C404.239537,528.563333 404.365092,528.216667 404.325092,527.868889 C404.285092,527.521111 404.081759,527.212222 403.779537,527.036667 Z" id="better-amp-symbol"></path>
        </g>
    </g>
</svg>